<?xml version="1.0" encoding="utf-8"?>
<!-- Generator: Adobe Illustrator 19.1.0, SVG Export Plug-In . SVG Version: 6.00 Build 0)  -->
<svg version="1.1" id="Ebene_1" xmlns="http://www.w3.org/2000/svg" xmlns:xlink="http://www.w3.org/1999/xlink" x="0px" y="0px"
	 viewBox="-287 410.9 20 20" style="enable-background:new -287 410.9 20 20;" xml:space="preserve">
<path d="M-277.1,428.1c-0.3,0-0.6,0-0.9-0.1c-1-0.3-1.9-1.1-2.1-2c-0.1-0.3,0.1-0.7,0.5-0.8c0.3-0.1,0.7,0.1,0.8,0.5
	c0.1,0.5,0.6,0.9,1.2,1.1c0.4,0.1,1.3,0.2,2.2-0.6c0.8-0.8,1-1.6,1.3-3.1c0.2-0.8,0.4-1.8,0.8-3.1c0.7-2.4,0.2-4.3-1.3-5.3
	c-1.3-0.8-3.2-0.6-4.4,0.5c-0.3,0.2-0.6,0.2-0.9,0c-0.2-0.3-0.2-0.6,0-0.9c1.6-1.5,4.1-1.8,5.9-0.7c2,1.3,2.7,3.8,1.8,6.7
	c-0.4,1.2-0.6,2.1-0.7,3c-0.3,1.6-0.5,2.7-1.7,3.8C-275.4,427.7-276.2,428.1-277.1,428.1z"/>
<path d="M-277.7,424.3c-0.2,0-0.4-0.1-0.4-0.3c-0.1-0.2,0-0.5,0.3-0.6c1-0.3,1.3-1.4,1-2.3c-0.2-0.8-0.9-1.7-2.3-1.5l-0.6,0.1v-0.6
	c0.1-1.5,0.8-2.7,1.9-3.2c0.9-0.4,1.9-0.3,2.6,0.2s1,1.4,0.9,2.3c0,0.3-0.3,0.4-0.5,0.4c-0.3,0-0.4-0.3-0.4-0.5
	c0.1-0.6-0.1-1.1-0.5-1.4c-0.5-0.3-1.1-0.4-1.7-0.1c-0.7,0.3-1.1,1-1.3,1.9c1.5,0,2.4,1.1,2.7,2.2c0.3,1.3-0.2,2.9-1.6,3.4H-277.7z"
	/>
</svg>
