<?xml version="1.0" encoding="utf-8"?>
<!-- Generator: Adobe Illustrator 19.1.0, SVG Export Plug-In . SVG Version: 6.00 Build 0)  -->
<svg version="1.1" id="Ebene_1" xmlns="http://www.w3.org/2000/svg" xmlns:xlink="http://www.w3.org/1999/xlink" x="0px" y="0px"
	 viewBox="-287 410.9 20 20" style="enable-background:new -287 410.9 20 20;" xml:space="preserve">
<g>
	<g>
		<path d="M-280.8,418.2v-3.1c0-0.3-0.2-0.5-0.5-0.5s-0.5,0.2-0.5,0.5v3.1c-0.7,0.2-1.2,0.9-1.2,1.6c0,0.8,0.5,1.4,1.2,1.6v5.3
			c0,0.3,0.2,0.5,0.5,0.5s0.5-0.2,0.5-0.5v-5.3c0.7-0.2,1.2-0.9,1.2-1.6C-279.6,419-280.1,418.4-280.8,418.2z M-281.2,420.5
			C-281.3,420.5-281.3,420.5-281.2,420.5c-0.1,0-0.1,0-0.1,0c-0.4,0-0.6-0.3-0.6-0.7c0-0.4,0.3-0.7,0.7-0.7c0.4,0,0.7,0.3,0.7,0.7
			C-280.6,420.1-280.9,420.4-281.2,420.5z"/>
		<path d="M-276.8,421.6v-6.5c0-0.3-0.2-0.5-0.5-0.5s-0.5,0.2-0.5,0.5v6.5c-0.7,0.2-1.2,0.9-1.2,1.6s0.5,1.4,1.2,1.6v1.9
			c0,0.3,0.2,0.5,0.5,0.5s0.5-0.2,0.5-0.5v-1.9c0.7-0.2,1.2-0.9,1.2-1.6S-276.1,421.8-276.8,421.6z M-277.2,423.9
			c-0.4,0-0.7-0.3-0.7-0.7s0.3-0.7,0.7-0.7c0.4,0,0.7,0.3,0.7,0.7S-276.9,423.9-277.2,423.9z"/>
		<path d="M-271.5,417.2c0-0.8-0.5-1.4-1.2-1.6v-0.5c0-0.3-0.2-0.5-0.5-0.5s-0.5,0.2-0.5,0.5v0.5c-0.7,0.2-1.2,0.9-1.2,1.6
			c0,0.8,0.5,1.4,1.2,1.6v7.9c0,0.3,0.2,0.5,0.5,0.5s0.5-0.2,0.5-0.5v-7.9C-272,418.6-271.5,418-271.5,417.2z M-273.2,417.9
			L-273.2,417.9L-273.2,417.9c-0.4,0-0.7-0.3-0.7-0.7c0-0.4,0.3-0.7,0.7-0.7l0,0l0,0c0.4,0,0.7,0.3,0.7,0.7
			S-272.8,417.9-273.2,417.9z"/>
	</g>
</g>
</svg>
