<?xml version="1.0" encoding="utf-8"?>
<!-- Generator: Adobe Illustrator 19.1.0, SVG Export Plug-In . SVG Version: 6.00 Build 0)  -->
<svg version="1.1" id="Ebene_1" xmlns="http://www.w3.org/2000/svg" xmlns:xlink="http://www.w3.org/1999/xlink" x="0px" y="0px"
	 viewBox="-287 410.9 20 20" style="enable-background:new -287 410.9 20 20;" xml:space="preserve">
<path d="M-269.5,424.2h-5.6c0,0-1.3,0.5-2.2,0.5c-0.9,0-1.9-0.5-1.9-0.5h-5.9v-9.1h0.5c0-1,0-1.7,0-1.7s2.4,0.1,4.2,0.1
	c1.7,0,3,1.4,3,1.4s1.4-1.4,3-1.4c0.4,0,4.2,0,4.2,0s0,0.6,0,1.6h0.6L-269.5,424.2L-269.5,424.2z M-277.5,415.9
	c-0.5-0.5-1.5-1.3-2.7-1.3s-3.2,0-3.2,0s0,7.1,0,7.6c0,0.4,0.4,0.4,0.4,0.4s1.4,0,2.7,0c1,0,2.3,0.8,2.8,1.2L-277.5,415.9
	L-277.5,415.9z M-274.3,414.6c-1.2,0-2.2,0.9-2.7,1.3v7.7c0.5-0.4,1.6-1.1,2.6-1.1c0.8,0,2.7,0,2.7,0s0.4,0,0.4-0.4
	c0-0.5,0-7.5,0-7.5S-273.7,414.6-274.3,414.6z"/>
<circle class="st0" cx="-275.1" cy="422.3" r="3.9"/>
<g>
	<path d="M-268.9,426.8l-2.3-2.3c0.4-0.6,0.5-1.4,0.5-2.1c0-1.2-0.5-2.3-1.3-3.1c-0.8-0.8-1.9-1.3-3.1-1.3s-2.3,0.5-3.1,1.3
		c-1.7,1.7-1.7,4.5,0,6.2c0.8,0.8,1.9,1.3,3.1,1.3c0.8,0,1.5-0.2,2.1-0.5l2.3,2.3c0.2,0.2,0.6,0.4,0.9,0.4s0.6-0.1,0.9-0.4
		C-268.4,428-268.4,427.3-268.9,426.8 M-277.3,424.5c-1.2-1.2-1.2-3.2,0-4.5c0.6-0.6,1.4-0.9,2.2-0.9c0.8,0,1.6,0.3,2.2,0.9
		s0.9,1.4,0.9,2.2c0,0.8-0.3,1.6-0.9,2.2s-1.4,0.9-2.2,0.9C-275.9,425.5-276.7,425.1-277.3,424.5"/>
	<path d="M-274.9,420.4c0.2,0,0.4,0.2,0.4,0.4v0.8h0.8c0.2,0,0.4,0.2,0.4,0.4v0.5c0,0.2-0.2,0.4-0.4,0.4h-0.8v0.8
		c0,0.2-0.2,0.4-0.4,0.4h-0.5c-0.2,0-0.4-0.2-0.4-0.4v-0.8h-0.8c-0.2,0-0.4-0.2-0.4-0.4V422c0-0.2,0.2-0.4,0.4-0.4h0.8v-0.7
		c0-0.2,0.2-0.4,0.4-0.4C-275.3,420.4-274.9,420.4-274.9,420.4z"/>
</g>
</svg>
