<?xml version="1.0" encoding="utf-8"?>
<!-- Generator: Adobe Illustrator 19.1.0, SVG Export Plug-In . SVG Version: 6.00 Build 0)  -->
<svg version="1.1" id="Ebene_1" xmlns="http://www.w3.org/2000/svg" xmlns:xlink="http://www.w3.org/1999/xlink" x="0px" y="0px"
	 viewBox="-287 410.9 20 20" style="enable-background:new -287 410.9 20 20;" xml:space="preserve">
<g>
	<path d="M-277,423.4L-277,423.4c-0.9,0-1.7-0.3-2.3-0.9c-0.1-0.1-0.1-0.4,0-0.5s0.4-0.1,0.5,0c0.5,0.5,1.1,0.7,1.8,0.7l0,0
		c0.5,0,1-0.2,1.5-0.4c0.2-0.1,0.4-0.1,0.5,0.1s0.1,0.4-0.1,0.5C-275.7,423.2-276.4,423.4-277,423.4z"/>
	<path d="M-269.6,420.3l-0.1-0.1l0,0l-0.1-0.1l0,0l-0.1-0.1l0,0l-0.1-0.1l0,0c-0.1,0-0.1-0.1-0.2-0.1l0,0c-1.5-1.2-3.9-2.5-6.7-2.5
		c-4.4,0-7.9,3.5-8.3,3.9l0,0l0,0l-0.2,0.2l0.2,0.3c0.2,0.2,3.8,4,8.3,4l0,0l0,0c3.2,0,6-1.9,7.3-3.1c0.4-0.3,0.6-0.8,0.6-1.2
		C-269.1,420.9-269.3,420.6-269.6,420.3z M-277.3,419c0,0.5-0.4,0.9-0.9,0.9s-0.9-0.4-0.9-0.9s0.4-0.9,0.9-0.9
		C-277.7,418.1-277.3,418.5-277.3,419z M-280.7,418.6c0.6-0.3,1.2-0.5,1.9-0.6c-0.5,0.5-0.8,1.1-0.8,1.9c0,1.4,1.1,2.5,2.5,2.5
		s2.5-1.1,2.5-2.5c0-0.7-0.3-1.4-0.8-1.9c0.7,0.1,1.3,0.4,1.9,0.6c0.1,0.4,0.2,0.8,0.2,1.2c0,2.1-1.7,3.8-3.8,3.8
		c-2.1,0-3.8-1.7-3.8-3.8C-280.9,419.4-280.8,419-280.7,418.6z M-271.6,423c-1.4,0.9-3.3,1.9-5.5,1.9c-0.2,0-0.4,0-0.6,0
		s-0.4,0-0.6-0.1l0,0c-0.5-0.1-1.1-0.2-1.5-0.4l0,0c-2.1-0.8-3.8-2.2-4.5-2.8c-0.1,0-0.1-0.1-0.1-0.1c0.5-0.5,1.6-1.5,3.1-2.3
		c0,0.3-0.1,0.5-0.1,0.8c0,2.5,2,4.5,4.5,4.5s4.5-2,4.5-4.5c0-0.3,0-0.6-0.1-0.8c0.3,0.2,0.6,0.3,0.8,0.5c0.1,0.1,1.1,0.9,1.2,1.8
		C-270.7,421.9-271,422.5-271.6,423z M-270,421.6c0-0.1,0-0.2,0-0.3c0-0.1,0-0.3-0.1-0.4c0.1,0.1,0.2,0.2,0.2,0.4
		C-269.9,421.4-269.9,421.5-270,421.6z"/>
</g>
</svg>
