<?xml version="1.0" encoding="UTF-8" standalone="no"?>
<svg
   xmlns:dc="http://purl.org/dc/elements/1.1/"
   xmlns:cc="http://creativecommons.org/ns#"
   xmlns:rdf="http://www.w3.org/1999/02/22-rdf-syntax-ns#"
   xmlns:svg="http://www.w3.org/2000/svg"
   xmlns="http://www.w3.org/2000/svg"
   xml:space="preserve"
   height="169px"
   width="150px"
   enable-background="new -212 0 168 160"
   viewBox="-212 0 168 160"
   y="0px"
   x="0px"
   id="Ebene_1"
   version="1.1"><metadata
     id="metadata29"><rdf:RDF><cc:Work
         rdf:about=""><dc:format>image/svg+xml</dc:format><dc:type
           rdf:resource="http://purl.org/dc/dcmitype/StillImage" /><dc:title></dc:title></cc:Work></rdf:RDF></metadata><defs
     id="defs27" /><g
     id="g22"><path
       id="path2"
       d="M-159.6,61.2c-0.9-8.9-0.8-19.8,6.9-24.3c3-1.8,6.7-2.2,10.3-2.4c20.3-1.2,40.9,1.1,60.5,6.8   c-1.1,5.1-4.4,9.4-7.8,13.4c-22,26.5-22.1,50.1-51.7,67.8c-1.7,1-30.3,1.2-32.1,0.3c-1.9-1-2.2-3.4-2.2-5.5   c-0.4-15.1,0.6-30.1,2.8-45"
       fill="#E20613" /><path
       id="path4"
       d="M-127.6,61.2c-0.4-3.9-0.5-7.7-0.1-11.5c-0.4,2.8-0.8,5.7-1.1,8.5c0.3-2.2,0.8-4.3,1.6-6.4   c-1.1,2.6-2.2,5.1-3.2,7.7c0.6-1.3,1.3-2.5,2.1-3.6c-1.7,2.2-3.3,4.3-5,6.5c0.7-0.8,1.4-1.5,2.3-2.2c-2.2,1.7-4.3,3.3-6.5,5   c0.7-0.5,1.4-0.9,2.1-1.2l-7.7,3.2c1.7-0.7,3.3-1.1,5.1-1.4c-2.8,0.4-5.7,0.8-8.5,1.1c12.4-1.5,25.3-0.7,37.7,0.9   c-2.8-0.4-5.7-0.8-8.5-1.1c9,1.2,18,3.1,26.7,5.6c-7.5-13.1-14.9-26.3-22.4-39.4c-0.4,1.4-0.8,2.7-1.3,4l3.2-7.7   c-1.3,2.6-2.8,4.9-4.6,7.2c1.7-2.2,3.3-4.3,5-6.5c-8.6,10.7-16.4,21.3-23,33.3c-4.6,8.5-9,17.2-14.8,24.9c1.7-2.2,3.3-4.3,5-6.5   c-3.7,4.8-7.9,9.1-12.7,12.9c2.2-1.7,4.3-3.3,6.5-5c-2.5,1.9-5.3,4.2-8.2,5.5l7.7-3.2c-0.4,0.1-0.7,0.2-1.1,0.2   c2.8-0.4,5.7-0.8,8.5-1.1c-9.6,1.2-20.3,1.3-29.9,0.2c2.8,0.4,5.7,0.8,8.5,1.1c-0.3,0-0.6-0.1-0.9-0.2c2.6,1.1,5.1,2.2,7.7,3.2   c-0.3-0.2-0.5-0.4-0.8-0.6l11.5,11.5c-0.5-0.5-0.8-1.1-1-1.7c1.1,2.6,2.2,5.1,3.2,7.7c-0.1-0.3-0.2-0.7-0.2-1   c0.4,2.8,0.8,5.7,1.1,8.5c-0.8-6.7-0.3-13.8,0-20.5c0.3-7.2,1-14.5,1.9-21.7c-0.4,2.8-0.8,5.7-1.1,8.5c0.2-1.7,0.5-3.3,0.7-5   c1.3-8.9,1.5-16.6-3.2-24.7c-3.9-6.6-11.5-13-19.1-14.7c-8.2-1.9-17.4-1.5-24.7,3.2c-6.5,4.2-13.5,11.1-14.7,19.1   c-1.6,11.1-3.1,22.3-3.7,33.5c-0.5,10.2-1.2,21.2,1.2,31.3c2.8,11.9,12.8,21.8,24.3,25.2c3.4,1,7.3,1.2,10.9,1.5   c3.8,0.3,7.7,0.3,11.5,0.3c12.2,0,25.6,0.4,36.3-6.4c15-9.5,26.9-21.9,36.1-37.1c7.6-12.6,13.6-25.9,22.6-37.7   c-1.7,2.2-3.3,4.3-5,6.5c7.7-9.9,15.5-18.5,18.7-31c4.3-16.9-5.4-34.5-22.4-39.4c-21.9-6.3-45.4-9.3-68.2-8   c-9.2,0.5-17.9,1.8-26.1,6.2c-7.2,3.9-13.2,10-17.3,17.1c-6.2,10.5-7.7,23.6-6.6,35.6c0.8,8.7,3,16.3,9.4,22.7   c5.6,5.6,14.7,9.7,22.7,9.4c8.3-0.4,16.9-3.1,22.7-9.4C-131.5,77.9-126.8,69.6-127.6,61.2"
       fill="#E20613" /><path
       id="path6"
       d="M-116.1,23c0.4-1.1,0.7-1.9,0.9-2.3c0.6-1.9,0.6-3.5-0.1-4.8c-0.9-0.9-2-1.5-3.3-1.6   c-1.2-0.1-2.3,0-3.4,0.6c-1.1,0.5-1.9,1.3-2.5,2.2c-0.6,1-0.9,2-0.7,3.2c-0.3-0.1-0.4,0-0.5,0.2c-0.1,0.2-0.3,0.4-0.5,0.3   c-0.6,4.8-0.9,7.3-0.8,7.6c0.2,0.1,0.4,0.4,0.5,0.9c0.1,0.5,0.3,0.8,0.7,0.9c-0.3,1-1,1.5-2.2,1.5c-0.1,0-1.1-0.2-2.9-0.5   c-0.2,0-0.4,0.1-0.5,0.3c-0.1,0.2-0.3,0.4-0.5,0.4c-0.5-0.4-0.8-0.7-0.9-0.8c-0.3-0.4-0.4-0.8-0.3-1.4c-0.1-0.1,0.5-0.2,1.8-0.3   v-0.8c-0.2-0.4-0.5-0.6-1.1-0.5c-0.1-0.4,0-1.2,0.3-2.3c0.2-1,0.3-1.7,0.1-2c1.8-3.4,3.8-6.4,5.9-9c1.2-0.2,2.4-1.1,3.5-2.6   c0.8,0,1.3-0.2,1.5-0.5c2.3-0.3,4.7,0.7,7.3,3c1,2,1.1,4.6,0.5,7.7c-0.6,2.7-1.5,4.9-2.8,6.3c-0.5,1.9-1.6,4-3.4,6.2   c-2,2.6-3.3,4.5-3.9,5.8c-0.8,0.8-1.5,2-2.3,3.7c-1,2.3-1.6,3.6-1.9,4.1c1.7,0.5,5.8,0.4,12.4-0.2c0.1,0,0.2-0.1,0.3-0.2   c0-0.2,0.1-0.3,0.2-0.3c1.4-0.1,2.3,0.2,2.6,0.8c0,0.3-0.3,0.5-0.8,0.7c0.2,0,0.5,0.2,1,0.5c0.4,0.2,0.7,0.3,1,0.4   c-0.5,1.1-0.8,1.6-0.8,1.5c-0.6,0-1.9,0.1-4,0.4c-1.7,0.2-3,0.3-3.8,0.1c-0.7,0.3-2.4,0.5-5.1,0.7c-2.4,0.2-4.1,0.7-5.2,1.4   c-0.4-0.2-1.1-0.1-2.2,0.3c0-0.5-0.3-0.7-0.8-0.7c-0.1-0.8,0.1-1.5,0.8-1.8c0.7,0.5,1.2,0.5,1.7,0c0-0.1-0.2-0.2-0.5-0.3   c-0.2-0.1-0.3-0.2-0.4-0.4c-0.1-0.8,0.2-1.3,1-1.5c0.1-0.2,0-0.3-0.2-0.3c-0.2,0-0.2-0.2-0.1-0.3c0.7-3.6,1.2-5.7,1.7-6.5   c0.1-0.3,0.4-0.7,0.9-1.3c0.4-0.6,0.7-1,0.9-1.4c0.2-0.3,0.4-0.9,0.7-1.7c0.2-0.7,0.5-1.2,0.7-1.5c0.1-0.2,0.3-0.4,0.6-0.7   c0.3-0.3,0.6-0.5,0.7-0.7c0.2-0.3,0.6-1,1.3-2.1c0.6-1,1-1.7,1.4-2.2c0.2-0.3,0.6-0.8,1.2-1.4c0.6-0.7,1.1-1.2,1.3-1.6   c1.1-1.3,1.8-2.6,2.1-3.7c0.2,0,0.3,0,0.3,0.2C-116.7,24.5-116.5,23.9-116.1,23 M-130.4,24.4c0.1-0.7,0.3-1.1,0.8-1.3   c0-0.7-0.2-1-0.5-1c-0.1,0.3-0.2,0.6-0.4,1c-0.2,0.4-0.3,0.8-0.3,0.9c-0.2,0.7-0.1,1.4,0.2,2L-130.4,24.4z M-126.8,43.5   c0.9-2.1,1.6-3.6,2.1-4.5c0.4-0.2,0.9-0.8,1.4-1.7c0.5-0.8,1-1.4,1.4-1.6v-0.8c1.8-1.5,3.3-3.6,4.5-6.4c-0.5,0.3-1.2,1-1.8,2.2   c-0.7,1.1-1.3,1.8-2,2.1c-0.5,0.9-1.1,2.1-2,3.4c-1.3,1.9-2,3-2.1,3.2c0-0.1,0-0.1-0.1-0.1c0,0-0.1,0-0.1,0.1   c-0.1,0.6-0.7,1.8-1.8,3.8c-0.9,1.7-1.4,3.2-1.5,4.5C-128.3,46.6-127.6,45.2-126.8,43.5"
       fill="#FFFFFF" /><path
       id="path8"
       d="M-171.1,78.8c0.6,0,0.8-0.1,0.4-0.4c0.6,0.4,0.7,1.4,0.5,2.9c-0.1,0.6-0.4,2-1,4c-0.4,1.4-0.8,2.1-1.2,2.2   c0,1.6-0.4,3.8-1.1,6.7c-0.8,3.1-1.3,5.3-1.3,6.6c1.1-2.4,2.7-8.4,4.7-18c0.2-0.9,0.2-1.3,0.2-1.1c0.1-0.3,0.4-0.5,0.8-0.6   c0.1-0.3,0.1-0.5,0-0.8c-0.1-0.3-0.2-0.5-0.2-0.7c0.9,0.3,1.7,0.8,2.2,1.5c0.1,0.1,0.3,0.4,0.7,1c0.3,0.5,0.5,0.8,0.8,1.1   c-0.1,0.1-0.1,0.3-0.2,0.5c-0.1,0.2-0.1,0.4-0.2,0.5c-0.1,0.3-0.4,0.5-0.7,0.6c0.1,0.3,0.2,0.6,0,1.1c-0.1,0.4,0,0.8,0.2,1.1   c0.1-0.1-0.5,2.5-1.7,7.6c-0.4,1.6-1.3,4.1-2.8,7.6c-1.4,3.1-2.2,5.6-2.4,7.4c-1,7.1-1.8,11.3-2.5,12.6c-0.8,6.1-2.1,10.6-3.9,13.6   c-0.3,0-0.5,0-0.7,0.2c-0.3,0.2-0.5,0.3-0.6,0.3c0.1,0.4,0,0.8-0.3,1l-0.7,0.7c-0.4,0-0.7-0.2-1-0.5c-0.4-0.4-0.6-0.7-0.8-0.8   c-0.2,0.7-0.9,1.2-2,1.5c-0.3-0.2-0.8-0.6-1.5-1.3c0.3-1.2,0.4-1.7,0.3-1.7c-0.8-1.5-1.3-4-1.8-7.6c-0.4-3.6-1-6-1.7-7.5   c-0.2-1.7-1.2-5.6-3-11.8c-1.9-13-3.7-21.7-5.2-26.1c0-0.2-0.2-0.3-0.6-0.3c-0.4,0-0.6-0.1-0.6-0.2c-0.4-1.5-0.1-2.4,0.8-2.8   c0.8-0.3,1.6,0.1,2.2,1.3c0.2-0.1,0.4-0.3,0.7-0.6c0.3-0.4,0.5-0.6,0.8-0.6c0.1,0,0.3,0.2,0.5,0.5c0.2,0.3,0.5,0.3,1,0.2   c0.6,2.2,2,8.1,4.2,17.6c1.6,7.2,3.3,12.9,4.9,17.1c0.1,0.9,0.4,2.6,0.9,5.1c0.4,2.1,0.7,3.8,0.8,5.3c1.4-3.8,3.8-12.9,7.1-27.3   c1.6-6.6,2.5-11.5,2.7-14.8c0.2-2.4,0.6-3.9,1.3-4.4C-171.9,78.7-171.7,78.8-171.1,78.8 M-195.8,83.9c0.7,3.3,1.1,5,1.3,5.2   C-194.3,86.4-194.7,84.7-195.8,83.9 M-193.1,95.6c-0.6-2.8-0.9-4.8-0.9-6h-0.8c1.1,6.9,1.9,10.9,2.5,12.1   C-192.3,100.2-192.6,98.2-193.1,95.6 M-189.8,113.7c0.1,0.9,0.5,1.5,1.2,1.7c-1.4-6.5-2.7-10.9-3.9-13.3c0.1,1,0.4,2.6,1,4.9   c0.6,2,0.8,3.6,0.7,4.7C-190.3,112-190,112.7-189.8,113.7"
       fill="#FFFFFF" /><path
       id="path10"
       d="M-139.6,46.4c1.3,2.8,2.1,5.8,2.2,9.1c0.1,3.3-0.5,6.3-1.7,9.1c-1.3,3-3.2,5.4-5.8,7.2   c0,0.1,0.1,0.3,0.3,0.4c0.1,0.1,0.2,0.3,0.3,0.4c-0.1,0.1-0.4,0.3-1,0.7c-0.4,0.3-0.5,0.6-0.3,1c-0.2-0.1-0.7-0.2-1.7-0.3   c-0.9,0.7-1.9,1.1-3.2,1.3c-1.4,0.2-2.8,0.1-4-0.3c-0.1,0-0.3-0.2-0.6-0.5c-0.3-0.3-0.6-0.5-0.8-0.6c-1.8-0.7-3.5-1.8-5.1-3.2   c-1.8-1.6-2.9-3.2-3.5-4.8c0.3-0.7,0.3-1.7-0.1-3.1c-0.4-1.4-0.4-2.5-0.1-3.2c0.6,0.1,1-0.1,1.1-0.4c0.2-0.3,0.2-0.7,0.2-1.3   c0.2-0.1,0.6-0.1,1.2,0c0.5,0.1,0.7,0.1,0.8-0.1c1.8,1.4,3.7,4.7,5.6,10c1.4,1.2,2.4,2,3.1,2.2c0.9,0.4,2.1,0.4,3.7,0.1   c0.2,0,0.3,0,0.5,0.2c0.2,0.1,0.3,0.1,0.4,0.1c2.5-1,4.4-3.4,5.6-7.2c1-3,1.4-6,1.3-9.1c0.1-0.1,0.2-0.3,0.5-0.7   c0.2-0.3,0.4-0.5,0.6-0.7c-0.2-0.5-0.3-1.2-0.4-2c0-0.7-0.1-1.2-0.2-1.5c-0.2-0.2-0.3-0.2-0.5,0c-0.2,0.2-0.4,0.2-0.5,0.1   c-0.7-1.6-2-2.9-3.8-3.7c-3.2-1.5-5.9-1.7-8.3-0.8c-0.3,0.1-0.9,0.6-1.9,1.5c-0.8,0.7-1.6,1-2.5,1c-0.1-0.1-0.2-0.3-0.4-0.6   c-0.2-0.2-0.3-0.4-0.3-0.5c-0.2-0.3-0.2-0.7,0-1.1c-0.3,0-0.6-0.1-1-0.2c-0.5-0.3-0.8-0.4-1-0.4c0.4-1.3,1.8-2.6,4.2-4.1   c2.5-1.5,3.9-2.7,4.3-3.6c0.3-0.2,0.4-0.2,0.6,0.1c0,0,0.1,0.2,0.1,0.4c0,0.2,0.1,0.3,0.1,0.4c0.2,0,0.2-0.2,0.1-0.7   c-0.1-0.4-0.3-0.6-0.5-0.5c0.1-0.2,0.2-0.5,0.4-0.8c0.2-0.4,0.4-0.6,0.5-0.8c0.3-0.6,0.3-1.3,0-2.1c0.9-1,1.3-2.4,1.1-4.4   c-0.3-3.6-0.5-5.2-0.5-5c-0.7-0.9-1-1.6-0.9-2.1c-1.1-1.1-2.7-1.9-4.9-2.4c-0.3,0-0.7-0.2-1.3-0.4c-0.4-0.1-0.7-0.2-1-0.1   c-1.4,0.2-3,0.9-4.6,2.3c-1.7,1.4-2.8,2.7-3.2,4.1c-0.1,0.1,0,0.3,0.1,0.6c0.1,0.3,0.1,0.5,0.1,0.6c0,0.1-0.2,0.2-0.5,0.3   c-0.3,0.1-0.4,0.2-0.4,0.3c-0.1,0.3-0.2,1-0.1,2.1c0,0.8-0.1,1.4-0.5,1.8c0.2,0.2,0.3,0.6,0.5,1.3c0.1,0.6,0.4,0.9,0.8,0.9   c0.3,1.7,0.3,2.4,0.2,2.3c-0.4,0.5-1.1,0.9-1.9,1.1c-0.8,0.2-1.4,0.5-1.7,0.8c-1-0.7-2.3-1.1-3.8-1.2c-0.5-2.9-0.3-5.6,0.6-8.3   c0.9-2.6,2.3-4.8,4.3-6.7c2-1.9,4.3-3.2,7-4c2.8-0.8,5.5-0.9,8.3-0.2c3.4,1.2,5.9,4.4,7.4,9.6c1.2,4.4,1.5,8.7,0.9,13.1   C-143,41.1-141,43.4-139.6,46.4 M-170,29.2c0.1-2.3,0.6-3.7,1.4-4.4c-0.1-0.4-0.4-0.5-0.6-0.3c-1.2,2.1-1.9,3.5-2.2,4.3   c-0.6,1.8-0.7,3.4-0.1,4.8C-170.6,32.8-170.1,31.4-170,29.2 M-161.6,62.2c0.2,1.4,0.6,2.8,1.3,4.2c0.8,1.8,1.7,2.8,2.7,3.2   C-158.6,66.3-159.9,63.9-161.6,62.2 M-153.7,41.1c0,0.5,0.3,0.7,0.7,0.6c0.4-0.1,0.5-0.4,0.2-0.9L-153.7,41.1z M-149.7,36.9   c0.3-0.4,0.4-0.8,0.3-1.3c-0.5,0.2-0.9,0.6-1.1,1.3c-0.3,0.7-0.2,1,0.3,1.1C-150.3,37.7-150.1,37.3-149.7,36.9 M-147.3,31.8   c0-0.2-0.1-0.6-0.1-1.1c-0.1-0.5-0.1-0.9-0.2-1c-0.1-0.7-0.4-1.2-0.9-1.4c0.1,0.4,0.1,1.1-0.1,2.1c-0.2,0.9-0.2,1.4,0.1,1.8   C-148.4,32.5-148.1,32.3-147.3,31.8 M-143.9,44c-1-1.4-2-2.1-3-2.2c0,0.1-0.1,0.3-0.4,0.5c-0.2,0.2-0.2,0.4,0,0.7   C-145,43.7-143.9,44-143.9,44"
       fill="#FFFFFF" /><path
       id="path12"
       d="M-82.1,21.5c0.2,0.7,0.2,1.3,0.2,1.9c-0.2-0.1-0.6,0.1-1,0.5c-0.1,0.5-0.7,4-1.8,10.5   c-0.7,4.4-1.6,7.9-2.6,10.6c-1.2,3.3-1.9,5.4-1.9,6.2c-0.1,0.3-0.3,0.3-0.5,0.2c-0.3-0.3-0.5-0.4-0.5-0.4c-0.1,0.3,0.2,0.5,0.8,0.7   c-0.8,1.9-1.3,3.5-1.4,4.9c0.3,0.1,0.9,0,1.6,0c0.9-0.1,1.4-0.1,1.6-0.2c1.2,0,1.7,0.6,1.4,1.9c-0.5,0.4-1.1,0.5-1.7,0.3   c0,0.4,0.2,0.9,0.6,1.4c0.4,0.5,0.5,1,0.5,1.6c-0.7,0.4-1.8,0.4-3.5,0.1c-2.8-0.5-4.3-0.8-4.6-0.8c-0.2,0-0.5,0-1,0.1   c-0.4,0.1-0.7,0.2-0.9,0.1c-0.3-0.1-0.8-0.3-1.5-0.6c-0.7-0.4-1.2-0.6-1.5-0.6c-0.9-0.2-2.4-0.4-4.4-0.5c-1.7-0.1-2.9-0.3-3.5-0.6   c0.1-1,0.2-1.6,0.2-1.6c0.5,0.1,1.5,0.2,2.9,0.5c1,0.2,1.9,0.2,2.6,0.2c-0.4-0.2-1.1-0.5-2.2-0.8c-0.9-0.2-1.4-0.5-1.7-0.9   c0.1-0.7,0.2-1.1,0.3-1.2c0.6,0.1,1.3,0.1,2-0.2c-0.4-0.3,2,0.2,7.2,1.4c0.1-0.4,1.5-4.8,4.3-13.1c1.9-5.7,3.2-10.5,4-14.3   c-1.2,0.8-4.5,3.8-9.8,8.7c-0.5,0.5-1.2,0.7-2.2,0.7c0,0.1,0-0.3-0.2-1c0-0.3,0.1-0.6,0.4-0.8c-0.1-0.2-0.3-0.2-0.5,0   c-0.2,0.2-0.4,0.2-0.6,0.1c-0.4-0.2-0.5-0.5-0.5-0.9c0-0.3,0.1-0.7,0.4-1.3c1.5-0.6,3.2-1.9,5.2-3.9c2.2-2.2,3.9-3.6,4.9-4.3   c0.9-1.3,2.3-2.7,4.1-4c-0.1-0.3,0-0.9,0.2-1.7c0.2,0.2,0.6,0.2,1-0.1c0.5-0.3,0.8-0.2,1.2,0.1c-0.1,0.4,0,0.9,0.4,1.4   C-82.9,21.4-82.3,21.4-82.1,21.5 M-93.2,56.3c0.3,0,0.6,0.1,0.9,0.1c0.1-1,0.2-1.6,0.1-1.9c1.1-1.1,1.6-2.5,1.3-4   c0.5-0.3,0.8-0.8,0.9-1.6c0.2-1.4,0.4-2.1,0.4-2.1c2.3-6.9,3.4-11.1,3.3-12.7c-3.6,10.8-6.3,18.1-7.8,22   C-93.8,56.2-93.5,56.3-93.2,56.3 M-92.8,50.4c0.2-0.5,0.2-0.8,0-0.9c0,0.1-0.1,0.2-0.2,0.5c-0.1,0.3-0.2,0.5-0.2,0.6   c-0.2,0.5-0.2,0.9,0.1,1.2C-93.3,51.4-93.1,51-92.8,50.4 M-92.2,48.6c0.1-0.5,0.3-0.8,0.6-0.8c-0.2,0-0.3-0.1-0.4-0.3   c-0.1-0.2-0.2-0.3-0.4-0.3c-0.1,0.7-0.3,1.4-0.5,2C-92.5,49.3-92.3,49.1-92.2,48.6 M-90.2,41c-1,3-1.7,5-2,6.2c0.6-0.2,1-1,1.3-2.4   c0.3-1.5,0.7-2.5,1.1-2.9c0-0.8,0.3-1.9,0.8-3.1c0.6-1.3,0.9-2.4,0.9-3.1c0.1,0,0.2-0.1,0.3-0.2c0.1,0,0.1,0,0.3,0.2   c-0.1-0.8,0.2-2.3,0.9-4.6c0.7-2.2,1-3.9,0.8-4.9c-0.7,0.8-1.2,2.3-1.6,4.6c-0.4,2.2-0.9,3.8-1.6,4.5C-88.9,36.7-89.4,38.6-90.2,41    M-90.2,27.1c0.3-0.2,0.6-0.4,0.7-0.6c0.5-0.5,0.8-0.9,0.8-1.3c-1.4,1.3-2.2,2.1-2.2,2.3C-90.7,27.5-90.5,27.3-90.2,27.1    M-89.3,58.7c0,0,0.1-0.1,0.3-0.3l-0.8-0.2c-0.3-0.1-0.5,0-0.5,0.3C-89.6,58.6-89.3,58.7-89.3,58.7"
       fill="#FFFFFF" /><path
       id="path14"
       d="M-122.8,73.8c0.1,3,1,6.9,2.9,11.5c2.2,5.7,3.5,9.5,3.8,11.3c0.5,2.5,1.5,5.6,3,9.4   c1.8,4.5,2.9,7.5,3.3,8.9c0.1,0.4,0.3,0.9,0.5,1.8c0.2,0.8,0.3,1.3,0.5,1.8c0.4,1.3,1,2.2,1.8,2.9c-0.7,1.3-1,2.1-1.1,2.2   c-1.8,0.2-3.1,0.9-3.8,1.9c-1.4-0.3-2.1-0.4-1.8-0.4c-0.2-0.2-0.3-0.3-0.3-0.5c0-0.4,0.1-0.6,0.1-0.6c-0.6,0.2-1.3-0.1-1.9-0.7   c-0.6-0.6-1.1-0.9-1.3-0.9c-0.2-2.1-0.8-5-1.9-8.7c-1.2-4.5-2-7.4-2.3-8.8c-3.7,0.1-7,0.4-9.9,0.8c-1,11.8-1.5,18.8-1.3,21   c-0.3,0-0.5,0-0.6,0.2c0,0.1-0.1,0.1-0.1,0.3c0,0.1-0.1,0.2-0.1,0.3c-0.5-0.2-1.5,0-3.1,0.6c-1.6,0.7-2.8,0.6-3.8-0.1   c0-0.7-0.1-1.3-0.5-1.7c1.4-5.5,2.6-12.9,3.6-22.3c1.3-11.9,2.2-19.5,2.8-22.8c-0.4-2.3,0.1-5.2,1.5-8.6c0.1,0,0.2,0.1,0.4,0.1   c0.2,0.1,0.3,0.1,0.3,0.1c0.3,0.1,0.4,0.4,0.3,0.7c2.8-1.5,4.2-2.2,4.2-2.2c0.4-0.1,0.7,0.2,0.8,1c0.2-0.1,0.4-0.4,0.6-1   c0.2-0.5,0.5-0.7,1.1-0.6C-124.5,72.2-123.8,73.2-122.8,73.8 M-135.5,117.6c0.8-4.5,1.4-7.7,2-9.4c-0.2-2.8,0-6.3,0.6-10.4   c0.8-5.8,1.3-9.3,1.3-10.4c0.3-3.8,0.3-6.1,0.2-6.8c-1.6,5.9-2.9,13.4-3.9,22.4c-0.3,2.8-0.7,6.7-1.2,11.7   c-0.5,5.5-0.9,9.4-1.2,11.7C-136.9,124.6-136.2,121.7-135.5,117.6 M-131.7,77.1c0.2-1.2,0.4-1.9,0.5-2.1c-0.1-0.2-0.2-0.2-0.5-0.2   c-0.5,1.4-0.7,2.8-0.7,4.2C-132.1,78.6-131.9,78-131.7,77.1 M-126.8,98c1.2,0,2.3-0.1,3.4-0.3c-0.4-2-2-6.6-4.7-14   c-0.2,1.3-0.5,3.7-1.1,7.2c-0.5,3-0.8,5.4-0.9,7.4C-129.3,98.1-128.2,98-126.8,98 M-124.8,82c0,0.1,0.1,0.3,0.2,0.6   c0,0.3,0.1,0.4,0.1,0.5c0.1,0.4,0.3,0.6,0.6,0.6C-124,82.7-124.3,82.1-124.8,82 M-124,88.9c2.5,7,3.6,10.4,3.5,10.1   C-121.2,94.3-122.3,90.9-124,88.9 M-121,90.7c-0.3-0.2-0.5-0.3-0.5-0.4c0.1,0.8,0.3,1.1,0.8,1C-120.7,91.1-120.8,90.9-121,90.7    M-118.4,97c-0.3-1-0.5-1.7-0.7-2.2c-0.6-1.6-1.1-2.5-1.7-2.5c3.8,9.4,5.7,14,5.7,13.9c-0.2-1.1-0.7-2.3-1.3-3.8   c-0.8-1.9-1.2-3-1.4-3.3C-117.9,98.8-118.1,98.1-118.4,97 M-116.2,110.7c-0.2-0.6-0.7-1.8-1.4-3.6c-0.6-1.5-1-2.7-1.4-3.6   c-0.1-0.2-0.2-0.2-0.5-0.1c3.5,10.4,5.3,15.7,5.5,15.9C-114.3,116.5-115,113.6-116.2,110.7 M-112.7,116.7c0.1,0.3,0.1,0.8,0.2,1.4   c0.1,0.7,0.1,1.2,0.2,1.4c0.2,1,0.7,1.4,1.6,1.2C-111.4,118.8-112,117.5-112.7,116.7"
       fill="#FFFFFF" /><path
       id="path16"
       d="M-155.3,94.6c0.1,0.6,0.4,0.9,0.8,1c0,0.5-0.6,3.7-1.6,9.4c-0.7,4.3-0.9,7.9-0.6,10.6   c-0.3,0.5-0.4,1.1-0.4,1.9c0,1.3,0,2.2,0,2.6c2,1.1,4.1,0.6,6.3-1.5c1.9-1.8,3.2-4,4.1-6.5c0.4,0.1,0.8,0,1.3-0.2   c0.4-0.1,0.8-0.1,1,0.1c-0.1,0.3,0.1,0.4,0.5,0.5c-0.3,1.4-1.2,2.9-2.6,4.4c-1.6,1.7-2.6,3-3,3.9c-0.7,0.3-1.5,0.8-2.4,1.5   c-1.1,0.8-1.8,1.4-2.3,1.6c-4.9,0.4-7.6-1.7-8-6.3c-0.1-0.8,0-1.9,0.2-3.4c0.2-1.8,0.4-3,0.4-3.5c0.1-3.6,0.3-6.2,0.6-7.8   c0.1-0.5,0.2-1.2,0.5-1.9c0.3-1,0.4-1.6,0.5-1.8c0.4-1.5,0.4-2.8,0.1-4c0.8,0.1,1.5,0,2.1-0.5c0.9-0.7,1.6-1.1,2.1-1.2   C-155.6,93.5-155.4,93.9-155.3,94.6 M-160.2,117.5c0,0,0,0.1,0,0.3c-0.1,0.3,0.1,0.4,0.5,0.4c0.1-0.9,0.1-2.2,0-3.9   c-0.1-1.9-0.2-3.3-0.1-4.2c0.6-5.2,0.9-7.7,1.1-7.3c0.4-0.6,0.6-1.4,0.7-2.4c0-0.9,0-1.5-0.2-1.9c-0.8,2.2-1.4,5.3-1.7,9   c-0.1,1-0.3,4.3-0.6,9.9C-160.4,117.3-160.3,117.4-160.2,117.5 M-157.9,84.1c0.4-1.1,1.2-1.9,2.2-2.6c1-0.6,2-0.9,3-0.7   c1,0.2,1.8,0.8,2.1,1.8c0.3,0.8,0.3,1.6,0,2.4c-0.3,0.8-0.8,1.5-1.5,2.1c-0.7,0.6-1.6,1-2.5,1.1c-1,0.2-2.1,0.1-3.1-0.3   C-158.3,86.5-158.4,85.3-157.9,84.1"
       fill="#FFFFFF" /><path
       id="path18"
       d="M-96.5,114.3c-0.4,1.2-1.1,2.2-2.2,3.1c-1.1,0.8-2.2,1.2-3.3,1.1c-1.2-0.1-2-0.7-2.5-1.8   c-0.4-0.8-0.4-1.7-0.2-2.6c0.2-0.9,0.7-1.7,1.5-2.4c0.8-0.7,1.7-1.2,2.7-1.5c1.1-0.3,2.3-0.2,3.5,0.1   C-96.2,111.6-96.1,113-96.5,114.3"
       fill="#FFFFFF" /><path
       id="path20"
       d="M-104.2,82.7c0.1-1.4-0.2-4.4-0.8-8.9c-0.6-4.2-0.7-7.3-0.4-9.4c0.9-0.2,1.6-0.1,1.9,0.1   c0,0.3,0.1,0.4,0.2,0.5c0,0.2,0,0.4-0.1,0.6c-0.1,0.3-0.2,0.5-0.2,0.6c0.3,1.7,0.7,5.4,1.2,10.9c0.5,5.1,1,8.9,1.5,11.4   c1,5.2,1.5,8.3,1.5,9.2c0,0.2,0,0.5,0,1c0,0.4-0.1,0.8-0.1,1c0,0.7,0.2,1.3,0.6,1.7c-0.2,0.7-0.6,1.2-1.1,1.6   c-0.7,0.5-1.2,0.9-1.4,1.1c-0.9-0.6-1.8-0.8-2.7-0.7c-0.1-0.1-0.1-0.4-0.1-1.1c0-0.6-0.2-0.9-0.4-0.9c0.1-0.1,0.2-0.3,0.4-0.6   c0.1-0.3,0.2-0.5,0.3-0.6c-0.4-3.8-0.6-7.4-0.8-10.8c0-0.7-0.2-1.7-0.4-3c-0.2-1.3-0.4-2.3-0.4-3c0-0.6-0.1-1.3-0.4-2.3   c-0.3-1.2-0.4-2-0.5-2.4c-0.1-0.5-0.1-1.3-0.1-2.4c0-1.1,0-1.8-0.1-2.3c-0.2-2-0.5-3.3-0.8-4c0-0.1-0.2-0.1-0.5-0.1   c0.3-0.3,0.4-0.9,0.2-1.8c-0.2-0.9-0.4-1.4-0.7-1.5c-0.1-0.7,0-1.2,0.4-1.6c0.5-0.4,1.1-0.5,1.8-0.1   C-106.2,69.1-105.6,75-104.2,82.7 M-104,84.4c0.6,6,0.9,9.2,1,9.4C-102.8,90.3-103.1,87.1-104,84.4 M-102.8,94.5   c0-0.3-0.1-0.4-0.4-0.5c0.3,0.9,0.4,1.3,0.3,1.3C-102.9,95.2-102.9,94.9-102.8,94.5 M-102.3,99.7c-0.1-0.3-0.2-0.5-0.4-0.5   c-0.1,0.2,0,0.5,0.1,0.8c0.1,0.3,0.3,0.5,0.5,0.6C-102.1,100.7-102.2,100.4-102.3,99.7 M-102.3,97.9c0-0.2-0.1-0.4-0.4-0.4   c-0.1,0.2-0.1,0.4-0.1,0.6c0,0.2,0.1,0.3,0.2,0.4C-102.4,98.3-102.3,98.1-102.3,97.9 M-101.2,94c-0.1-1.3-0.3-2.3-0.7-3   c0,3.2,0.4,5.2,1,5.9C-101,96.6-101.1,95.6-101.2,94"
       fill="#FFFFFF" /></g></svg>
