<?xml version="1.0" encoding="UTF-8" standalone="no"?>
<!-- Generator: Adobe Illustrator 21.0.2, SVG Export Plug-In . SVG Version: 6.00 Build 0)  -->

<svg
   xmlns:dc="http://purl.org/dc/elements/1.1/"
   xmlns:cc="http://creativecommons.org/ns#"
   xmlns:rdf="http://www.w3.org/1999/02/22-rdf-syntax-ns#"
   xmlns:svg="http://www.w3.org/2000/svg"
   xmlns="http://www.w3.org/2000/svg"
   xmlns:sodipodi="http://sodipodi.sourceforge.net/DTD/sodipodi-0.dtd"
   xmlns:inkscape="http://www.inkscape.org/namespaces/inkscape"
   version="1.1"
   id="Ebene_1"
   x="0px"
   y="0px"
   height="168px"
   width="190px"
	 viewBox="0 0 168 189.7"
   xml:space="preserve"
   sodipodi:docname="logo_321los.svg"
   style="enable-background:new 0 0 168 189.7;"
   inkscape:version="0.92.2 5c3e80d, 2017-08-06"><metadata
     id="metadata49"><rdf:RDF><cc:Work
         rdf:about=""><dc:format>image/svg+xml</dc:format><dc:type
           rdf:resource="http://purl.org/dc/dcmitype/StillImage" /><dc:title></dc:title></cc:Work></rdf:RDF></metadata><defs
     id="defs47" /><sodipodi:namedview
     pagecolor="#ffffff"
     bordercolor="#666666"
     borderopacity="1"
     objecttolerance="10"
     gridtolerance="10"
     guidetolerance="10"
     inkscape:pageopacity="0"
     inkscape:pageshadow="2"
     inkscape:window-width="1440"
     inkscape:window-height="855"
     id="namedview45"
     showgrid="false"
     inkscape:zoom="1.2440696"
     inkscape:cx="-27.003707"
     inkscape:cy="79.354434"
     inkscape:window-x="0"
     inkscape:window-y="1"
     inkscape:window-maximized="1"
     inkscape:current-layer="Ebene_1" /><style
     type="text/css"
     id="style2">
	.st0{fill:#E20613;}
	.st1{fill:#F5C500;}
	.st2{fill:#FFFFFF;}
</style><path
     class="st0"
     d="M54.1,79.8C53.2,70.9,53.3,60,61,55.5c3-1.8,6.7-2.2,10.3-2.4c20.3-1.2,40.9,1.1,60.5,6.8  c-1.1,5.1-4.4,9.4-7.8,13.4c-22,26.5-22.1,50.1-51.7,67.8c-1.7,1-30.3,1.2-32.1,0.3c-1.9-1-2.2-3.4-2.2-5.5  c-0.4-15.1,0.6-30.1,2.8-45"
     id="path4" /><path
     class="st1"
     d="M86.1,79.8c-0.4-3.9-0.5-7.7-0.1-11.5c-0.4,2.8-0.8,5.7-1.1,8.5c0.3-2.2,0.8-4.3,1.6-6.4  c-1.1,2.6-2.2,5.1-3.2,7.7c0.6-1.3,1.3-2.5,2.1-3.6c-1.7,2.2-3.3,4.3-5,6.5c0.7-0.8,1.4-1.5,2.3-2.2c-2.2,1.7-4.3,3.3-6.5,5  c0.7-0.5,1.4-0.9,2.1-1.2l-7.7,3.2c1.7-0.7,3.3-1.1,5.1-1.4c-2.8,0.4-5.7,0.8-8.5,1.1c12.4-1.5,25.3-0.7,37.7,0.9  c-2.8-0.4-5.7-0.8-8.5-1.1c9,1.2,18,3.1,26.7,5.6c-7.5-13.1-14.9-26.3-22.4-39.4c-0.4,1.4-0.8,2.7-1.3,4l3.2-7.7  c-1.3,2.6-2.8,4.9-4.6,7.2c1.7-2.2,3.3-4.3,5-6.5c-8.6,10.7-16.4,21.3-23,33.3c-4.6,8.5-9,17.2-14.8,24.9c1.7-2.2,3.3-4.3,5-6.5  c-3.7,4.8-7.9,9.1-12.7,12.9c2.2-1.7,4.3-3.3,6.5-5c-2.5,1.9-5.3,4.2-8.2,5.5l7.7-3.2c-0.4,0.1-0.7,0.2-1.1,0.2  c2.8-0.4,5.7-0.8,8.5-1.1c-9.6,1.2-20.3,1.3-29.9,0.2c2.8,0.4,5.7,0.8,8.5,1.1c-0.3,0-0.6-0.1-0.9-0.2c2.6,1.1,5.1,2.2,7.7,3.2  c-0.3-0.2-0.5-0.4-0.8-0.6L67,124.7c-0.5-0.5-0.8-1.1-1-1.7c1.1,2.6,2.2,5.1,3.2,7.7c-0.1-0.3-0.2-0.7-0.2-1  c0.4,2.8,0.8,5.7,1.1,8.5c-0.8-6.7-0.3-13.8,0-20.5c0.3-7.2,1-14.5,1.9-21.7c-0.4,2.8-0.8,5.7-1.1,8.5c0.2-1.7,0.5-3.3,0.7-5  c1.3-8.9,1.5-16.6-3.2-24.7c-3.9-6.6-11.5-13-19.1-14.7c-8.2-1.9-17.4-1.5-24.7,3.2c-6.5,4.2-13.5,11.1-14.7,19.1  c-1.6,11.1-3.1,22.3-3.7,33.5c-0.5,10.2-1.2,21.2,1.2,31.3c2.8,11.9,12.8,21.8,24.3,25.2c3.4,1,7.3,1.2,10.9,1.5  c3.8,0.3,7.7,0.3,11.5,0.3c12.2,0,25.6,0.4,36.3-6.4c15-9.5,26.9-21.9,36.1-37.1c7.6-12.6,13.6-25.9,22.6-37.7  c-1.7,2.2-3.3,4.3-5,6.5c7.7-9.9,15.5-18.5,18.7-31c4.3-16.9-5.4-34.5-22.4-39.4c-21.9-6.3-45.4-9.3-68.2-8  c-9.2,0.5-17.9,1.8-26.1,6.2c-7.2,3.9-13.2,10-17.3,17.1C22.6,54.9,21.1,68,22.2,80c0.8,8.7,3,16.3,9.4,22.7  c5.6,5.6,14.7,9.7,22.7,9.4c8.3-0.4,16.9-3.1,22.7-9.4C82.2,96.5,86.9,88.2,86.1,79.8"
     id="path6" /><g
     id="g18"><path
       class="st2"
       d="M41,57.1c0.4,0.7,1.1,1.1,2.1,1.1c0.6,0,1.1-0.1,1.4-0.3c0.4-0.2,0.6-0.5,0.8-0.8c0.2-0.4,0.3-0.8,0.4-1.2   c0.1-0.5,0.1-1,0.1-1.5c0-0.5,0-1.1-0.1-1.5c-0.1-0.5-0.2-0.9-0.5-1.3c-0.2-0.4-0.5-0.7-1-0.9c-0.4-0.2-1-0.3-1.6-0.3H41V47h1.6   c0.5,0,1-0.1,1.3-0.3c0.4-0.2,0.6-0.5,0.9-0.9c0.2-0.4,0.4-0.8,0.5-1.2c0.1-0.5,0.2-0.9,0.2-1.4c0-1.2-0.2-2-0.6-2.4   c-0.4-0.5-1-0.7-1.8-0.7c-0.5,0-0.9,0.1-1.3,0.3c-0.3,0.2-0.6,0.5-0.8,0.8c-0.2,0.4-0.3,0.8-0.4,1.2c-0.1,0.5-0.1,1-0.1,1.6h-4.5   c0-2.4,0.6-4.2,1.8-5.4c1.2-1.2,3-1.8,5.3-1.8c2.2,0,3.9,0.5,5.1,1.5c1.2,1,1.8,2.6,1.8,4.7c0,1.5-0.3,2.6-1,3.6s-1.5,1.5-2.7,1.8   v0.1c1.6,0.2,2.7,0.9,3.3,1.9c0.6,1,1,2.3,1,3.8c0,0.8-0.1,1.7-0.3,2.5s-0.6,1.6-1.2,2.3c-0.6,0.7-1.4,1.3-2.4,1.7   c-1,0.4-2.4,0.6-4.1,0.6c-2.3,0-4.1-0.6-5.2-1.9c-1.2-1.3-1.7-3.1-1.7-5.4v-0.1h4.7C40.5,55.3,40.7,56.3,41,57.1z"
       id="path8" /><path
       class="st2"
       d="M62.5,53.1h-9.6v-4h9.6V53.1z"
       id="path10" /><path
       class="st2"
       d="M64.6,60.9c0-1.1,0.1-2.1,0.3-3c0.2-0.9,0.5-1.8,1-2.7c0.4-0.8,1-1.7,1.7-2.5c0.7-0.8,1.4-1.6,2.3-2.4l2-1.8   c0.5-0.5,1-0.9,1.3-1.3c0.3-0.4,0.6-0.8,0.8-1.2c0.2-0.4,0.3-0.9,0.4-1.3s0.1-1,0.1-1.6c0-2-0.8-3-2.4-3c-0.6,0-1.1,0.1-1.4,0.4   c-0.4,0.2-0.6,0.6-0.8,1c-0.2,0.4-0.3,0.9-0.4,1.5c-0.1,0.6-0.1,1.2-0.1,1.8h-4.7v-0.9c0-2.2,0.6-4,1.8-5.2   c1.2-1.2,3.1-1.8,5.7-1.8c2.4,0,4.3,0.6,5.4,1.7c1.2,1.1,1.8,2.8,1.8,4.9c0,0.8-0.1,1.5-0.2,2.2c-0.1,0.7-0.4,1.3-0.6,1.9   c-0.3,0.6-0.7,1.2-1.2,1.8s-1.1,1.2-1.7,1.8l-2.7,2.5c-0.7,0.7-1.3,1.3-1.7,1.9c-0.4,0.6-0.7,1.2-0.8,1.6h9.1v3.8H64.6z"
       id="path12" /><path
       class="st2"
       d="M91.4,53.1h-9.6v-4h9.6V53.1z"
       id="path14" /><path
       class="st2"
       d="M99.1,43.9h-4.8v-3.2h0.4c1.6,0,2.9-0.3,3.9-0.9c0.9-0.6,1.5-1.6,1.8-3h3.6v24.1h-4.9V43.9z"
       id="path16" /></g><g
     id="g26"><path
       class="st2"
       d="M69.6,74h-4.8v-5.6h4.8V74z"
       id="path20" /><path
       class="st2"
       d="M78.2,74h-4.8v-5.6h4.8V74z"
       id="path22" /><path
       class="st2"
       d="M86.9,74h-4.8v-5.6h4.8V74z"
       id="path24" /></g><g
     id="g30"><path
       class="st2"
       d="M37.2,114.3c0.9-5.1,2.7-9.7,5.4-13.8c2.7-4.2,6.1-7.6,10-10.4c3.9-2.7,8.3-4.7,13.2-5.8   c4.8-1.1,9.8-1.3,14.9-0.4c5.1,0.9,9.7,2.7,13.8,5.4c4.2,2.7,7.6,6.1,10.4,10c2.7,3.9,4.7,8.3,5.8,13.2c1.1,4.8,1.3,9.8,0.4,14.9   s-2.7,9.7-5.4,13.8c-2.7,4.2-6.1,7.6-10,10.4c-3.9,2.8-8.3,4.7-13.2,5.8c-4.8,1.1-9.8,1.3-14.9,0.4c-5.1-0.9-9.7-2.7-13.8-5.4   c-4.2-2.7-7.6-6.1-10.4-10c-2.8-3.9-4.7-8.3-5.8-13.2C36.4,124.3,36.3,119.4,37.2,114.3z M47.1,116c-0.7,3.7-0.6,7.3,0.3,10.9   c0.8,3.5,2.3,6.7,4.3,9.6c2,2.9,4.5,5.3,7.6,7.3c3,2,6.4,3.3,10.1,4c3.7,0.7,7.3,0.6,10.9-0.3c3.5-0.8,6.7-2.3,9.6-4.3   c2.9-2,5.3-4.5,7.3-7.6c2-3,3.3-6.4,4-10.1c0.7-3.7,0.6-7.3-0.3-10.9c-0.8-3.5-2.3-6.7-4.3-9.6c-2-2.9-4.5-5.3-7.6-7.3   c-3-2-6.4-3.3-10.1-4c-3.7-0.7-7.3-0.6-10.9,0.3c-3.5,0.8-6.7,2.3-9.6,4.3c-2.9,2-5.3,4.5-7.3,7.6C49,108.9,47.7,112.3,47.1,116z    M69.8,145.1c-3.4-0.6-6.4-1.8-9.1-3.6c-2.7-1.8-5-4-6.8-6.6c-1.8-2.6-3.1-5.5-3.9-8.6c-0.8-3.1-0.8-6.4-0.2-9.8   c0.6-3.4,1.8-6.4,3.6-9.1c1.8-2.7,4-5,6.6-6.8c2.6-1.8,5.5-3.1,8.6-3.9c3.1-0.8,6.4-0.8,9.8-0.2c3.4,0.6,6.4,1.8,9.1,3.6   c2.7,1.8,5,4,6.8,6.6c1.8,2.6,3.1,5.5,3.9,8.6c0.8,3.1,0.8,6.4,0.2,9.8c-0.6,3.4-1.8,6.4-3.6,9.1c-1.8,2.7-4,5-6.6,6.8   c-2.6,1.8-5.5,3.1-8.6,3.9C76.4,145.6,73.2,145.7,69.8,145.1z M59.3,118.2c-0.4,2-0.3,4,0.1,6c0.5,1.9,1.2,3.7,2.3,5.2   c1.1,1.6,2.5,2.9,4.1,4c1.7,1.1,3.5,1.8,5.5,2.2c2,0.4,4,0.3,6-0.1c1.9-0.5,3.7-1.2,5.3-2.3c1.6-1.1,2.9-2.5,4-4.1   c1.1-1.7,1.8-3.5,2.2-5.5c0.4-2,0.3-4-0.1-6c-0.5-1.9-1.2-3.7-2.3-5.2c-1.1-1.6-2.5-2.9-4.1-4c-1.7-1.1-3.5-1.8-5.5-2.2   c-2-0.4-4-0.3-6,0.1c-1.9,0.5-3.7,1.2-5.2,2.3c-1.6,1.1-2.9,2.5-4,4.1C60.4,114.3,59.7,116.2,59.3,118.2z"
       id="path28" /></g><g
     id="g34"><path
       class="st2"
       d="M103.1,90.1c1.1,0.6,2.3,1.1,3.6,1.5c1,0.5,2.2,0.9,3.6,1.3s2.7,0.7,4.1,1c2.5,0.4,3.9-0.3,4.2-2.1   c0.1-0.7-0.1-1.5-0.8-2.3c-0.6-0.9-1.4-1.8-2.4-2.9c-1-1.1-2.1-2.3-3.2-3.6c-1.1-1.3-2.2-2.8-3.1-4.4c-0.9-1.6-1.6-3.4-2-5.2   c-0.4-1.9-0.5-4-0.1-6.2c0.4-2.5,1.3-4.7,2.6-6.5c1.3-1.8,2.8-3.2,4.7-4.2c1.8-1,3.9-1.7,6.2-2c2.3-0.3,4.7-0.2,7.2,0.2   c1.3,0.2,2.6,0.5,3.9,0.9c1.3,0.4,2.4,0.7,3.4,1c1.2,0.4,2.3,0.7,3.4,1.1l-2.7,15.1c-0.4-0.1-0.9-0.3-1.4-0.4   c-0.4-0.1-0.9-0.3-1.4-0.4c-0.5-0.1-1.1-0.3-1.7-0.4c-0.3-0.1-0.7-0.1-1.2-0.2c-0.5-0.1-1-0.1-1.4,0c-0.5,0-0.9,0.2-1.2,0.4   c-0.4,0.2-0.6,0.6-0.7,1c-0.1,0.4,0.2,1,0.8,1.8c0.6,0.8,1.4,1.7,2.3,2.7c0.9,1.1,1.9,2.3,3,3.6c1.1,1.4,2,2.9,2.8,4.5   s1.4,3.4,1.8,5.4c0.4,2,0.4,4.1,0,6.4c-0.4,2.4-1.2,4.5-2.3,6.5c-1.1,1.9-2.6,3.5-4.5,4.8c-1.9,1.3-4.1,2.1-6.8,2.6   c-2.6,0.5-5.7,0.4-9.1-0.2c-2.1-0.4-3.9-0.8-5.7-1.3c-1.7-0.5-3.2-1-4.5-1.5c-1.5-0.5-2.9-1.1-4.1-1.7L103.1,90.1z M108.2,101   c0.7,0.3,1.5,0.6,2.4,0.8c0.7,0.2,1.5,0.5,2.3,0.7c0.8,0.2,1.7,0.4,2.5,0.6c1.5,0.3,3,0.4,4.5,0.3c1.5-0.1,2.9-0.5,4.2-1.1   c1.3-0.6,2.4-1.5,3.3-2.6c0.9-1.1,1.5-2.6,1.8-4.5c0.3-1.6,0.1-3.1-0.4-4.7c-0.5-1.5-1.3-3.1-2.3-4.6c-1-1.5-2.1-3-3.2-4.4   c-1.2-1.4-2.3-2.9-3.3-4.3c-1-1.4-1.8-2.8-2.4-4.2c-0.6-1.4-0.7-2.7-0.5-4c0.3-1.9,1.2-3.3,2.7-4.2c1.4-0.8,3.5-1,6.3-0.5   c0.4,0.1,0.9,0.2,1.3,0.3c0.5,0.1,0.9,0.2,1.3,0.4c0.4,0.1,0.8,0.2,1.3,0.3l0.4-2.1c-0.4-0.1-0.8-0.2-1.2-0.3   c-0.4-0.1-0.8-0.2-1.2-0.3c-0.5-0.1-0.9-0.2-1.4-0.3c-2.9-0.5-5.4-0.3-7.6,0.7c-2.1,1-3.4,2.9-3.9,5.7c-0.3,1.5-0.1,3,0.4,4.5   c0.5,1.5,1.3,2.9,2.3,4.4c1,1.5,2.1,2.9,3.2,4.4c1.2,1.4,2.3,2.9,3.3,4.3c1,1.4,1.8,2.9,2.3,4.3c0.6,1.4,0.7,2.9,0.5,4.3   c-0.5,2.6-1.7,4.4-3.7,5.4c-2,1-4.5,1.3-7.6,0.7c-1.8-0.3-3.5-0.8-5-1.3c-0.8-0.2-1.6-0.5-2.3-0.8L108.2,101z"
       id="path32" /></g><g
     id="g38"><path
       class="st2"
       d="M62.2,132c-0.9,0.9-2.2,2.1-4,3.7c-3.5,3-6.5,5.7-8.9,7.9c-6.1,5.7-9.6,9-10.5,9.7c-2.3,2-3.9,3.4-4.8,4   c-0.3,0.2-0.8,0.6-1.5,1c-0.9-0.4-1.6-0.8-2.4-1.3l-6-3.8l-2.5-3.7c0.7-0.5,1.2-0.9,1.6-1.2c1.6-1.1,4.4-2.7,8.5-4.7l13.2-6.7   l14.1-7.1l3.4,1.7L62.2,132z M65.7,127.3c-1.1-1.5-1.4-3.2-1.1-5.1c0.3-1.9,1.3-3.3,2.9-4.4c1.5-1.1,3.2-1.4,5.1-1.1   c1.9,0.3,3.3,1.3,4.4,2.8c1.1,1.6,1.5,3.3,1.1,5.1s-1.3,3.3-2.8,4.4c-1.6,1.1-3.3,1.5-5.1,1.1C68.2,129.8,66.7,128.8,65.7,127.3z"
       id="path36" /></g><g
     id="g42"><path
       class="st2"
       d="M8.1,53.5l18-3.2l7,39.9l14.9-2.6l2.5,14.2l-32.9,5.8L8.1,53.5z M44.9,96l-0.3-1.9l-18.1,3.2l-6.9-39.1   l-2.1,0.4l7.2,41.1L44.9,96z"
       id="path40" /></g></svg>
