<?xml version="1.0" encoding="UTF-8" standalone="no"?>
<!-- Generator: Adobe Illustrator 21.1.0, SVG Export Plug-In . SVG Version: 6.00 Build 0)  -->

<svg
   xmlns:dc="http://purl.org/dc/elements/1.1/"
   xmlns:cc="http://creativecommons.org/ns#"
   xmlns:rdf="http://www.w3.org/1999/02/22-rdf-syntax-ns#"
   xmlns:svg="http://www.w3.org/2000/svg"
   xmlns="http://www.w3.org/2000/svg"
   xmlns:sodipodi="http://sodipodi.sourceforge.net/DTD/sodipodi-0.dtd"
   xmlns:inkscape="http://www.inkscape.org/namespaces/inkscape"
   version="1.1"
   id="Ebene_1"
   x="0px"
   y="0px"
   height="168px"
   width="190px"
   viewBox="0 0 168 189.7"
   style="enable-background:new 0 0 168 189.7;"
   xml:space="preserve"
   sodipodi:docname="logo_321partez.svg"
   inkscape:version="0.92.2 5c3e80d, 2017-08-06"><metadata
     id="metadata55"><rdf:RDF><cc:Work
         rdf:about=""><dc:format>image/svg+xml</dc:format><dc:type
           rdf:resource="http://purl.org/dc/dcmitype/StillImage" /><dc:title></dc:title></cc:Work></rdf:RDF></metadata><defs
     id="defs53" /><sodipodi:namedview
     pagecolor="#ffffff"
     bordercolor="#666666"
     borderopacity="1"
     objecttolerance="10"
     gridtolerance="10"
     guidetolerance="10"
     inkscape:pageopacity="0"
     inkscape:pageshadow="2"
     inkscape:window-width="1440"
     inkscape:window-height="855"
     id="namedview51"
     showgrid="false"
     inkscape:zoom="1.2440696"
     inkscape:cx="-20.495761"
     inkscape:cy="94.849998"
     inkscape:window-x="0"
     inkscape:window-y="1"
     inkscape:window-maximized="1"
     inkscape:current-layer="Ebene_1" /><style
     type="text/css"
     id="style2">
	.st0{fill:#E20613;}
	.st1{fill:#77AECF;}
	.st2{fill:#FFFFFF;}
</style><path
     class="st0"
     d="M54.1,79.8C53.2,70.9,53.3,60,61,55.5c3-1.8,6.7-2.2,10.3-2.4c20.3-1.2,40.9,1.1,60.5,6.8  c-1.1,5.1-4.4,9.4-7.8,13.4c-22,26.5-22.1,50.1-51.7,67.8c-1.7,1-30.3,1.2-32.1,0.3c-1.9-1-2.2-3.4-2.2-5.5  c-0.4-15.1,0.6-30.1,2.8-45"
     id="path4" /><path
     class="st1"
     d="M86.1,79.8c-0.4-3.9-0.5-7.7-0.1-11.5c-0.4,2.8-0.8,5.7-1.1,8.5c0.3-2.2,0.8-4.3,1.6-6.4  c-1.1,2.6-2.2,5.1-3.2,7.7c0.6-1.3,1.3-2.5,2.1-3.6c-1.7,2.2-3.3,4.3-5,6.5c0.7-0.8,1.4-1.5,2.3-2.2c-2.2,1.7-4.3,3.3-6.5,5  c0.7-0.5,1.4-0.9,2.1-1.2l-7.7,3.2c1.7-0.7,3.3-1.1,5.1-1.4c-2.8,0.4-5.7,0.8-8.5,1.1c12.4-1.5,25.3-0.7,37.7,0.9  c-2.8-0.4-5.7-0.8-8.5-1.1c9,1.2,18,3.1,26.7,5.6c-7.5-13.1-14.9-26.3-22.4-39.4c-0.4,1.4-0.8,2.7-1.3,4l3.2-7.7  c-1.3,2.6-2.8,4.9-4.6,7.2c1.7-2.2,3.3-4.3,5-6.5c-8.6,10.7-16.4,21.3-23,33.3c-4.6,8.5-9,17.2-14.8,24.9c1.7-2.2,3.3-4.3,5-6.5  c-3.7,4.8-7.9,9.1-12.7,12.9c2.2-1.7,4.3-3.3,6.5-5c-2.5,1.9-5.3,4.2-8.2,5.5l7.7-3.2c-0.4,0.1-0.7,0.2-1.1,0.2  c2.8-0.4,5.7-0.8,8.5-1.1c-9.6,1.2-20.3,1.3-29.9,0.2c2.8,0.4,5.7,0.8,8.5,1.1c-0.3,0-0.6-0.1-0.9-0.2c2.6,1.1,5.1,2.2,7.7,3.2  c-0.3-0.2-0.5-0.4-0.8-0.6L67,124.7c-0.5-0.5-0.8-1.1-1-1.7c1.1,2.6,2.2,5.1,3.2,7.7c-0.1-0.3-0.2-0.7-0.2-1  c0.4,2.8,0.8,5.7,1.1,8.5c-0.8-6.7-0.3-13.8,0-20.5c0.3-7.2,1-14.5,1.9-21.7c-0.4,2.8-0.8,5.7-1.1,8.5c0.2-1.7,0.5-3.3,0.7-5  c1.3-8.9,1.5-16.6-3.2-24.7c-3.9-6.6-11.5-13-19.1-14.7c-8.2-1.9-17.4-1.5-24.7,3.2c-6.5,4.2-13.5,11.1-14.7,19.1  c-1.6,11.1-3.1,22.3-3.7,33.5c-0.5,10.2-1.2,21.2,1.2,31.3c2.8,11.9,12.8,21.8,24.3,25.2c3.4,1,7.3,1.2,10.9,1.5  c3.8,0.3,7.7,0.3,11.5,0.3c12.2,0,25.6,0.4,36.3-6.4c15-9.5,26.9-21.9,36.1-37.1c7.6-12.6,13.6-25.9,22.6-37.7  c-1.7,2.2-3.3,4.3-5,6.5c7.7-9.9,15.5-18.5,18.7-31c4.3-16.9-5.4-34.5-22.4-39.4c-21.9-6.3-45.4-9.3-68.2-8  c-9.2,0.5-17.9,1.8-26.1,6.2c-7.2,3.9-13.2,10-17.3,17.1C22.6,54.9,21.1,68,22.2,80c0.8,8.7,3,16.3,9.4,22.7  c5.6,5.6,14.7,9.7,22.7,9.4c8.3-0.4,16.9-3.1,22.7-9.4C82.2,96.5,86.9,88.2,86.1,79.8"
     id="path6" /><g
     id="g10"><path
       class="st2"
       d="M68.7,74.8c0,3.9-1.6,7.2-4.7,9.9c-3.5,3-7.9,4.5-13.2,4.5c-4.4,0-7.6-1-9.7-3.1c-1.3-1.3-2-2.8-2-4.5   c0-1.4,0.5-2.6,1.4-3.5c0.9-0.9,2.1-1.3,3.7-1.3c1.2,0,2.2,0.4,3,1.1c0.8,0.7,1.2,1.6,1.2,2.7c0,1.6-1.1,2.9-3.3,3.9   c-0.9,0.4-1.3,0.8-1.3,1.1c0,0.6,0.6,1.2,1.8,1.7c1.2,0.5,2.5,0.7,4,0.7c3.5,0,6.4-1.2,8.6-3.6c2.2-2.4,3.3-5.6,3.3-9.5   c0-7.9-3.5-11.9-10.6-11.9c-0.7,0-1.2,0-1.5,0h-0.5c-0.6,0-0.9-0.2-0.9-0.6c0-0.3,0.6-0.6,1.7-0.8c3.3-0.5,5.8-1.7,7.6-3.6   c1.8-1.9,2.7-4.4,2.7-7.4c0-3-0.8-5.4-2.3-7.2c-1.5-1.8-3.6-2.7-6.2-2.7c-1.9,0-3.6,0.4-5,1.2c-1.4,0.8-2.1,1.8-2.1,2.8   c0,0.4,0.3,0.7,1,0.8c3.1,0.7,4.6,2,4.6,3.9c0,2.4-1.2,3.6-3.7,3.6c-1.6,0-2.9-0.5-3.8-1.4c-1-0.9-1.4-2.2-1.4-3.7   c0-2.5,1.1-4.6,3.3-6.3c2.2-1.7,5.2-2.6,9.1-2.6c4.4,0,7.8,1.1,10.1,3.4c2.3,2.3,3.5,4.9,3.5,8c0,4.2-2,7.3-5.9,9.3   c-1.4,0.7-3.7,1.3-6.8,1.8v0.5c3.9,0.1,7,1,9.4,2.6C67,67,68.7,70.4,68.7,74.8z"
       id="path8" /></g><g
     id="g14"><path
       class="st2"
       d="M122.4,82.6c0,0.4-0.5,0.6-1.5,0.6H120h-2.6c-1.8,0-3.6,0-5.4,0c-3.2,0-5.3,0-6.1,0s-1.6,0-2.1,0   c-1.1,0-1.7-0.2-1.7-0.6c0-0.4,0.3-0.6,1-0.6c1,0,2.1,0,3.3-0.1c1.4,0,2.2-0.4,2.3-1.1c0.1-0.7,0.2-2.1,0.2-4.4V43.6   c0-1.5,0-2.4-0.1-2.7s-0.4-0.4-1-0.4c-0.2,0-1.8,0.1-4.6,0.3c-0.6,0-0.9,0.1-1.1,0.1c-0.6,0-0.8-0.2-0.8-0.5c0-0.4,0.3-0.6,0.8-0.6   c2.2-0.2,4.4-0.9,6.6-2c2.2-1.1,4-2.4,5.4-3.9c0.5-0.4,0.9-0.6,1-0.6c0.4,0,0.6,0.2,0.6,0.7v1.3c0,0.4,0,0.8,0,1.3v41.9   c0,1.7,0.1,2.7,0.2,2.9c0.2,0.3,0.7,0.4,1.7,0.5h1.6h1.2h1C122,81.9,122.4,82.1,122.4,82.6z"
       id="path12" /></g><g
     id="g18"><path
       class="st2"
       d="M100.7,60.6c0,0.1,0,0.5-0.1,1.1c-0.2,1.5-0.6,5.3-1.1,11.4L99.4,74c-4.8-0.2-10.3-0.4-16.4-0.4   c-3.3,0-6.4,0.1-9.3,0.2c-2.9,0.1-4.2,0.2-3.8,0.2c-1.3,0-1.9-0.2-1.9-0.7c0-0.4,1.2-1.5,3.6-3.5c5.8-4.8,10-8.6,12.5-11.6   c4.3-5.2,6.4-11.3,6.4-18.3c0-4.7-1-8.3-2.9-10.7c-1.5-1.9-3.6-2.8-6.3-2.8c-2.7,0-4.8,0.8-6.3,2.5c-1.2,1.3-1.8,2.5-1.8,3.8   c0,0.8,0.6,1.2,1.9,1.3c3.3,0.1,4.9,1.6,4.9,4.3c0,2.6-1.4,3.9-4.1,3.9c-1.7,0-3.1-0.5-4.1-1.6c-1-1.1-1.5-2.5-1.5-4.4   c0-3.5,1.2-6.2,3.6-8.3c2.4-2.1,5.6-3.1,9.6-3.1c4,0,7.3,1.3,9.9,3.8c3,2.9,4.5,6.8,4.5,11.5c0,5.2-1.7,10-5.2,14.3   c-3.5,4.4-9.3,9.1-17.4,14.2c3.1-0.1,7-0.1,11.6-0.1c3.9,0,6.3-0.1,7.3-0.2c1-0.1,1.9-0.4,2.7-0.9c0.7-0.4,1.2-2,1.7-4.7   c0.3-1.9,0.8-2.8,1.4-2.8C100.5,59.5,100.7,59.9,100.7,60.6z"
       id="path16" /></g><g
     id="g22"><path
       class="st2"
       d="M134.2,70.4c-2.1,12-3.1,22.4-3,31.2c0,1-0.3,1.5-0.9,1.5c-0.6,0-0.9-0.5-0.9-1.4c0-8.8-0.9-19.2-2.9-31.4   c1-1.9,1.5-2.9,1.5-2.9c0.8-1.3,1.6-2,2.3-2c0.6,0,1.1,0.2,1.4,0.6c0.3,0.4,1.1,1.6,2.2,3.6L134.2,70.4z M134,111.7   c0,1-0.4,1.9-1.1,2.7c-0.7,0.7-1.6,1.1-2.7,1.1c-1.1,0-2-0.4-2.7-1.1s-1.1-1.6-1.1-2.7c0-1.1,0.4-2,1.1-2.7   c0.7-0.7,1.7-1.1,2.7-1.1c1,0,1.9,0.4,2.6,1.1C133.6,109.8,134,110.7,134,111.7z"
       id="path20" /></g><g
     id="g48"><g
       id="g26"><path
         class="st2"
         d="M43.1,114c0,4.8-1.3,8.7-4,11.9c-2.7,3.2-6.1,4.7-10.1,4.7c-3.1,0-5.5-1.2-7.4-3.6v15.7    c0,1.3,0.1,2.1,0.2,2.5c0.1,0.3,0.4,0.6,0.9,0.7c0.5,0.1,1.7,0.2,3.7,0.2c0.5,0,0.8,0.2,0.8,0.7c0,0.3-0.3,0.5-0.9,0.5    c0,0-0.3,0-0.7,0s-0.8,0-1.2,0h-7.1c-0.5,0-1.2,0-2.1,0c-0.9,0-1.9,0-3.1,0H8.6c-1,0-1.5-0.2-1.5-0.6c0-0.3,0.8-0.5,2.5-0.5    c1.4,0,2.2-0.1,2.3-0.4c0.2-0.3,0.2-1.2,0.2-2.7v-35.3c0-0.3,0-0.7,0-1c0-0.3,0-0.5,0-0.6v-2c0-1-0.3-1.6-1.1-1.8    c-0.4-0.1-1.2-0.2-2.4-0.2H7.3c-0.4,0-0.6-0.1-0.6-0.4c0-0.4,0.3-0.5,0.8-0.4c4.9-0.1,9.3-1.1,13-2.8c0.2,0.3,0.3,0.7,0.4,1.1    l0.1,1.8l0.1,1.2c1.3-1.6,2.5-2.6,3.7-3.2c1.2-0.6,2.8-0.9,4.7-0.9c3.9,0,7.1,1.5,9.7,4.4C41.8,106,43.1,109.6,43.1,114z     M32.8,113.8c0-8.9-2-13.3-6-13.3c-1.8,0-3.2,0.8-4.5,2.5c-0.6,0.8-0.8,2.1-0.8,4v13.8c0,3,0.4,5,1.1,6.1c1.1,1.6,2.5,2.4,4.3,2.4    C30.9,129.1,32.8,124,32.8,113.8z"
         id="path24" /></g><g
       id="g30"><path
         class="st2"
         d="M60.3,146c0,0.3-0.3,0.8-0.9,1.3c-1.7,1.6-3.8,2.3-6.3,2.3c-1.6,0-2.8-0.3-3.5-1c-0.7-0.7-1.2-1.9-1.4-3.6    c-1.8,3.2-4.2,4.8-7.3,4.8c-1.7,0-3.1-0.5-4.1-1.6c-1-1.1-1.6-2.4-1.6-4.1c0-5,4.2-7.9,12.7-8.8v-1.2c0-3.9-0.1-6.4-0.4-7.3    l-0.1-0.3c-0.6-2-1.9-3-4.2-3c-1.3,0-2.3,0.4-3.1,1.1c-0.8,0.7-1.2,1.5-1.2,2.2c0,0.4,0.5,0.6,1.4,0.7c1.4,0.1,2.1,1,2.1,2.6    c0,0.9-0.3,1.6-0.9,2.2c-0.6,0.6-1.3,0.9-2.2,0.9c-1.1,0-2.1-0.3-2.8-1c-0.7-0.7-1.1-1.6-1.1-2.6c0-1.7,0.8-3.2,2.5-4.6    c1.7-1.4,3.9-2.1,6.7-2.1c4.1,0,6.9,0.7,8.6,2.2c1.3,1.2,1.9,3.3,1.9,6.4v10.1c0,2,0,3.1,0.1,3.4c0.2,1.7,0.8,2.5,1.7,2.5    c0.7,0,1.5-0.5,2.5-1.4c0.2-0.2,0.4-0.3,0.5-0.3C60.2,145.7,60.3,145.8,60.3,146z M47.9,139v-2.9c-3.8,0.7-5.7,2.9-5.7,6.5    c0,2.8,0.9,4.1,2.8,4.1c1.1,0,1.8-0.6,2.2-1.8C47.7,143.8,47.9,141.8,47.9,139z"
         id="path28" /></g><g
       id="g34"><path
         class="st2"
         d="M74.2,122.6c0,0.9-0.2,1.5-0.7,2.1s-1.1,0.8-1.9,0.8c-1.6,0-2.4-0.7-2.4-2.2c0-0.5,0.2-1,0.6-1.5    c0.1-0.1,0.1-0.2,0.1-0.3c0-0.3-0.2-0.4-0.6-0.4c-1,0-1.7,0.8-2.3,2.3c-0.3,0.9-0.4,3-0.4,6.5v3.2v3.9c0,0.8,0.4,1.2,1.2,1.3    c0.5,0,1,0,1.7,0c0.3,0,0.5,0.1,0.5,0.3c0,0.2-0.1,0.4-0.4,0.4h-0.9c-0.3,0-1.5,0-3.8,0c0.1,0-0.5,0-2,0h-2.2H59c-0.3,0-0.6,0-1,0    c-0.3,0-0.5-0.1-0.5-0.3c0-0.2,0.2-0.3,0.6-0.3c1.2,0,1.9-0.2,2.2-0.4c0.2-0.2,0.4-0.9,0.4-2l0-11.8c0-1-0.1-1.7-0.4-2.1    c-0.3-0.4-0.9-0.6-1.9-0.7c-0.8-0.1-1.2-0.1-1.3-0.1c-0.1,0-0.2-0.1-0.2-0.3s0.1-0.2,0.4-0.2c0.3,0,0.5,0,0.7,0h0.9    c2.3,0,4.7-0.5,7.3-1.4c0.1,0.6,0.2,1.3,0.2,2v1.8c0.6-1.4,1.2-2.4,1.8-3c0.7-0.6,1.5-0.9,2.6-0.9c1,0,1.8,0.3,2.4,0.9    C73.9,120.9,74.2,121.7,74.2,122.6z"
         id="path32" /></g><g
       id="g38"><path
         class="st2"
         d="M94.4,138.6c0,0.4-0.4,1-1.1,1.7c-2,1.9-4.7,2.8-8.2,2.8c-3.2,0-5.3-0.8-6.3-2.3c-0.4-0.6-0.6-1.2-0.7-1.7    c-0.1-0.5-0.1-1.9-0.1-4v-2.9c0.1-0.8,0.1-1.6,0.1-2.4l-0.1-1.3v-5.4v-4.3c0-0.7-0.1-1.1-0.3-1.3c-0.2-0.1-0.8-0.2-1.8-0.2    c-1.2,0-1.8-0.2-1.8-0.5c0-0.2,0.2-0.4,0.7-0.5c3.8-0.1,7-2.2,9.7-6.1c0.4-0.6,0.6-0.8,0.8-0.8c0.2,0,0.4,0.3,0.4,0.8    c0,3.4,0.1,5.3,0.4,5.6c0.3,0.3,1.3,0.5,2.9,0.5c1.7,0,2.9-0.1,3.5-0.2c0.1,0,0.2-0.1,0.2-0.1c0.2,0,0.2,0.1,0.2,0.4    c0,0.6-0.3,0.9-0.8,0.9c-1.6,0-3.4,0.1-5.4,0.1c-0.2,0-0.4,0-0.8,0v1.3c0,10.7,0.1,16.9,0.2,18.7c0.4,2.3,1.5,3.5,3.4,3.5    c0.9,0,1.9-0.6,3.3-1.8c0.6-0.6,1.1-0.8,1.2-0.8C94.4,138.3,94.4,138.4,94.4,138.6z"
         id="path36" /></g><g
       id="g42"><path
         class="st2"
         d="M120.1,136.3c0,0.3-0.2,1-0.5,2.3c-0.1,0.5-0.3,1.3-0.5,2.4c-0.1,0.5-0.2,1.1-0.3,1.6l-0.1,0.6H118h-5.3H104    c-0.4,0-0.9,0-1.4,0.1s-0.8,0.1-0.9,0.1c-0.3,0-0.5-0.1-0.5-0.3l0.1-0.3c1.3-2.4,3.3-5.9,5.9-10.7c1.1-1.9,2.5-4.2,4.1-7l1-1.9    c-0.4-0.1-0.8-0.1-1.2-0.1c-2.2,0-3.9,0.4-4.9,1.1c-1,0.7-1.9,2.1-2.6,4.2c-0.2,0.5-0.3,0.7-0.5,0.7c-0.2,0-0.2-0.1-0.2-0.3    c0-0.1,0.1-0.9,0.4-2.3l0.4-2.2l0.3-2.1h0.7l1.9,0.1l6.7,0c2.9,0,4.7,0,5.5-0.1h0.2c0.2,0,0.3,0.1,0.3,0.2c0,0.3-0.9,2.1-2.8,5.5    l-8.1,14.5c1.8,0,2.9,0,3.2,0c2.4,0,4.1-0.5,5.2-1.5c1-0.9,1.8-2.3,2.5-4.2c0.1-0.4,0.3-0.6,0.5-0.6    C120,136,120.1,136.1,120.1,136.3z"
         id="path40" /></g><g
       id="g46"><path
         class="st2"
         d="M111.3,127.7c0,0.8-0.5,1.8-1.4,3c-1.9,2.7-4.5,4-7.6,4c-3.5,0-6.4-1.1-8.6-3.3c-2.3-2.2-3.4-5.1-3.4-8.5    c0-3.4,1.1-6.2,3.3-8.5c2.2-2.3,4.9-3.4,8.2-3.4c2.2,0,4.1,0.5,5.7,1.5c1.7,1.1,2.9,2.6,3.4,4.6c0.1,0.6,0.2,1.4,0.3,2.2    c-0.8,0.1-4,0.2-9.6,0.2c-0.9,0-2,0-3.3,0.1c-0.1,1.2-0.2,2.3-0.2,3.2c0,4,0.8,6.9,2.5,8.6c1,1,2.2,1.5,3.7,1.5    c1.2,0,2.4-0.4,3.5-1.2c1.1-0.8,2-1.9,2.6-3.2c0.3-0.7,0.5-1,0.7-1C111.2,127.4,111.3,127.5,111.3,127.7z M104.7,118.6    c0-2.7-0.2-4.5-0.6-5.5s-1.1-1.5-2.2-1.5c-2.1,0-3.3,2.4-3.6,7.1c0.7,0,2.3,0,4.6,0C103.6,118.6,104.2,118.6,104.7,118.6z"
         id="path44" /></g></g></svg>
